<svg fill="none" viewBox="0 0 400 400" xmlns="http://www.w3.org/2000/svg">
    <style>

        #bg {
            fill: #000
        }

        @media (prefers-color-scheme: light) {
            #bg {
                fill: #fff
            }
        }
    </style>
    <g clip-path="url(#a)">
        <circle id="bg" cx="200" cy="200" r="168" />
        <path d="M262.25 211.468c.002-2.453-1.231-4.598-3.289-5.89l-52.968-33.229c-3.283-2.06-4.283-6.429-2.224-9.712l46.614-74.302-123.651 80.701c-2.074 1.318-3.236 3.502-3.208 5.974a6.94 6.94 0 0 0 3.29 5.889l52.967 33.23a7.042 7.042 0 0 1 2.224 9.711l-46.594 74.271 123.632-80.669c2.112-1.379 3.255-3.53 3.207-5.974Z" fill="#4F46E5"/>
    </g>
    <defs>
        <clipPath id="a">
            <path fill="#fff" d="M0 0h400v400H0z"/>
        </clipPath>
    </defs>
</svg>